<?xml version="1.0" encoding="UTF-8" standalone="no"?>
<!-- Created with Inkscape (http://www.inkscape.org/) -->

<svg
   width="134.93759mm"
   height="129.30055mm"
   viewBox="0 0 134.93759 129.30055"
   version="1.1"
   id="svg1"
   xml:space="preserve"
   xmlns:inkscape="http://www.inkscape.org/namespaces/inkscape"
   xmlns:sodipodi="http://sodipodi.sourceforge.net/DTD/sodipodi-0.dtd"
   xmlns="http://www.w3.org/2000/svg"
   xmlns:svg="http://www.w3.org/2000/svg"><sodipodi:namedview
     id="namedview1"
     pagecolor="#ffffff"
     bordercolor="#000000"
     borderopacity="0.25"
     inkscape:showpageshadow="2"
     inkscape:pageopacity="0.0"
     inkscape:pagecheckerboard="0"
     inkscape:deskcolor="#d1d1d1"
     inkscape:document-units="mm"><inkscape:page
       x="0"
       y="0"
       width="134.93759"
       height="129.30055"
       id="page2"
       margin="0"
       bleed="0" /></sodipodi:namedview><defs
     id="defs1" /><g
     inkscape:label="Layer 1"
     inkscape:groupmode="layer"
     id="layer1"
     transform="translate(-37.570785,-83.780978)"><g
       id="g3"><path
         id="XMLID_128_"
         style="fill:#000000;fill-opacity:1;stroke-width:0.264583"
         d="m 164.22586,114.78326 h -8.62779 v -5.9817 h 5.80945 c 1.4613,0 2.64584,-1.1848 2.64584,-2.64583 0,-1.46103 -1.18454,-2.64583 -2.64584,-2.64583 h -5.80945 v -5.982234 h 5.80945 c 1.4613,0 2.64584,-1.184804 2.64584,-2.645833 0,-1.461029 -1.18454,-2.645833 -2.64584,-2.645833 h -5.80945 v -5.809192 c 0,-1.461029 -1.18454,-2.645833 -2.64584,-2.645833 -1.46129,0 -2.64583,1.184804 -2.64583,2.645833 V 92.236 h -5.80919 c -1.4613,0 -2.64583,1.184804 -2.64583,2.645833 0,1.461029 1.18453,2.645833 2.64583,2.645833 h 5.80919 v 5.981964 h -5.80919 c -1.4613,0 -2.64583,1.18481 -2.64583,2.64583 0,1.46103 1.18453,2.64584 2.64583,2.64584 h 5.80919 v 5.9817 h -8.62753 c -1.4613,0 -2.64584,1.1848 -2.64584,2.64583 0,1.46103 1.18454,2.64583 2.64584,2.64583 h 8.62753 v 5.9817 h -5.80919 c -1.4613,0 -2.64583,1.18481 -2.64583,2.64584 0,1.46103 1.18453,2.64583 2.64583,2.64583 h 5.80919 v 17.08282 c 0,1.4613 1.18454,2.64584 2.64583,2.64584 1.4613,0 2.64584,-1.18454 2.64584,-2.64584 v -17.08282 h 5.80945 c 1.4613,0 2.64584,-1.1848 2.64584,-2.64583 0,-1.46103 -1.18454,-2.64584 -2.64584,-2.64584 h -5.80945 v -5.9817 h 8.62779 c 1.4613,0 2.64584,-1.1848 2.64584,-2.64583 0,-1.46103 -1.18454,-2.64557 -2.64584,-2.64557 z" /><path
         id="XMLID_125_"
         style="fill:#000000;fill-opacity:1;stroke-width:0.264583"
         d="m 96.584607,113.37409 c -1.461294,0 -2.645833,1.18481 -2.645833,2.64583 0,1.69863 0,40.61275 0,43.68483 0,1.46103 1.184539,2.64583 2.645833,2.64583 1.461294,0 2.645833,-1.1848 2.645833,-2.64583 V 131.5208 c 2.39369,2.14551 5.43957,3.57505 8.80031,3.95235 v 24.2316 c 0,1.46103 1.18454,2.64583 2.64583,2.64583 1.46129,0 2.64583,-1.1848 2.64583,-2.64583 0,-4.14205 0,-27.13831 0,-30.45566 -2.6e-4,-15.8541 -16.711345,-15.86389 -16.737803,-15.875 z m 2.645833,6.32698 v -0.88529 c 4.98951,0.85037 8.80031,5.20514 8.80031,10.43331 v 0.8853 c -4.98978,-0.85037 -8.80031,-5.20515 -8.80031,-10.43332 z" /><path
         id="XMLID_124_"
         style="fill:#000000;fill-opacity:1;stroke-width:0.264583"
         d="m 84.530984,93.352806 c -13.572596,-8.938948 -31.983627,-9.079706 -45.769476,0 -1.135857,0.748242 -1.519502,2.235729 -0.886884,3.439848 l 12.964583,24.685096 c 0.681567,1.29831 2.28309,1.78964 3.572669,1.11231 1.293548,-0.67945 1.791494,-2.27886 1.112044,-3.57267 L 43.711597,96.526483 c 10.93179,-6.173523 24.894381,-6.197335 35.86771,-5.29e-4 L 67.749786,119.0158 c -0.680243,1.29328 -0.183091,2.89322 1.109927,3.57346 1.293284,0.67972 2.892955,0.18283 3.573463,-1.10992 L 85.417074,96.794242 c 0.633677,-1.204384 0.250295,-2.69293 -0.88609,-3.441436 z" /><g
         id="XMLID_107_"
         transform="matrix(0.26458333,0,0,0.26458333,37.570618,83.780975)"
         style="fill:#000000;fill-opacity:1"><path
           id="XMLID_118_"
           style="fill:#000000;fill-opacity:1"
           d="M 122.914,127.826 H 59.001 c -5.523,0 -10,4.478 -10,10 v 31.957 c 0,0.246 9.566,277.583 9.924,287.966 0.599,17.353 14.669,30.946 32.033,30.946 17.364,0 31.434,-13.593 32.033,-30.946 0.392,-11.373 9.924,-287.72 9.924,-287.966 v -31.957 c -0.001,-5.522 -4.478,-10 -10.001,-10 z m -53.195,62.609 h 42.477 l -3.351,97.174 H 73.07 Z m -0.718,-42.609 h 43.913 v 21.784 l -0.028,0.824 H 69.03 l -0.028,-0.824 v -21.784 z m 21.957,320.869 c -6.529,0 -11.819,-5.111 -12.044,-11.636 L 73.76,307.608 h 34.396 l -5.153,149.451 c -0.226,6.525 -5.516,11.636 -12.045,11.636 z" /><path
           id="XMLID_113_"
           style="fill:#000000;fill-opacity:1"
           d="M 318.914,319.565 H 307.61 v -32.609 c 0,-5.523 -4.477,-10 -10,-10 h -95.87 c -5.523,0 -10,4.477 -10,10 v 32.609 h -11.305 c -5.523,0 -10,4.478 -10,10 v 149.13 c 0,5.522 4.477,10 10,10 h 138.479 c 5.523,0 10,-4.478 10,-10 v -149.13 c 0,-5.522 -4.477,-10 -10,-10 z M 211.74,296.956 h 75.87 v 22.609 h -75.87 z m 97.174,42.609 v 86.522 H 190.436 v -86.522 c 13.946,0 103.134,0 118.478,0 z m -118.478,129.13 v -22.608 h 118.479 v 22.608 z" /><path
           id="XMLID_108_"
           style="fill:#000000;fill-opacity:1"
           d="m 500.001,276.956 h -11.304 v -32.608 c 0,-5.522 -4.477,-10 -10,-10 H 393.48 c -5.523,0 -10,4.478 -10,10 v 32.608 h -11.305 c -5.523,0 -10,4.477 -10,10 v 191.739 c 0,5.522 4.477,10 10,10 h 127.826 c 5.522,0 10,-4.478 10,-10 V 286.956 c 0,-5.522 -4.477,-10 -10,-10 z M 403.48,254.348 h 65.217 v 22.608 H 403.48 Z m 86.521,42.608 V 426.087 H 382.175 V 296.956 c 22.002,0 85.889,0 107.826,0 z M 382.175,468.695 v -22.608 h 107.826 v 22.608 z" /></g></g></g></svg>
